<?xml version="1.0" encoding="utf-8"?>
<svg xmlns="http://www.w3.org/2000/svg" xmlns:xlink="http://www.w3.org/1999/xlink" version= "1.1" width="1617px" height="1000px" viewBox="-450 217 1617 1000">
<g id="layer1">
<g style="fill:rgb(237,23,75); fill-opacity:1.0; stroke-linejoin: miter">
<path d="M-450.001,215.70714C-450.34363,215.70714,-450.6722,215.84325,-450.9145,216.08551C-451.15677,216.32777,-451.29288,216.65637,-451.29288,216.999L-451.29187,1217.0C-451.29187,1217.7135,-450.71347,1218.2919,-450.0,1218.2919L1167.001,1218.2928C1167.3436,1218.2928,1167.6721,1218.1567,1167.9144,1217.9144C1168.1567,1217.6721,1168.2928,1217.3436,1168.2928,1217.001L1168.2919,217.0C1168.2919,216.28653,1167.7135,215.70815,1167.0,215.70815L-450.001,215.70714 Z"/>
</g>
</g>
<g id="layer2">
<g style="fill:rgb(34,43,50); fill-opacity:0.32941177; stroke-linejoin: miter">
<path d="M909.5202,1137.0394L904.8527,1140.5542Q871.6683,1151.1759,710.65753,1157.5443Q548.5327,1163.9075,328.83136,1162.7048Q119.155106,1161.0238,-6.5573654,1152.8673Q-46.83703,1150.2307,-72.913635,1147.1216L-94.83031,1143.9252Q-112.89165,1140.626,-113.09471,1137.0394Q-107.61179,1126.0328,36.663773,1118.724Q180.93935,1111.4153,398.21277,1111.1376Q615.486,1111.4153,759.7617,1118.724Q904.03735,1126.0328,909.5202,1137.0394"/>
</g>
<g style="fill:rgb(34,43,50); fill-opacity:1.0; stroke-linejoin: miter">
<path d="M42.295723,412.53668L42.289734,412.53683L42.289764,412.53683L42.289764,412.53683L42.295723,412.53668 Z M672.4119,1044.1908C672.3565,1044.2042,672.30743,1044.2089,672.26263,1044.2089L672.2614,1044.2089L672.40216,1044.1908 Z M555.96466,1046.3734C555.99066,1046.3789,556.002,1046.3827,556.002,1046.3839L555.99713,1046.3839C555.9902,1046.3828,555.97565,1046.3796,555.956,1046.3734 Z M593.06805,1047.2212C593.0562,1047.2244,593.04767,1047.2261,593.0434,1047.2267L593.0402,1047.2267C593.0402,1047.2261,593.0461,1047.224,593.059,1047.2212 Z M193.57759,1042.8495L276.1133,1043.4766L276.1122,1043.4766C320.02997,1043.8805,396.34686,1044.4719,450.4672,1044.8917L457.29562,1044.9447L457.29428,1044.9447C508.28244,1045.4397,550.68304,1045.9373,555.55756,1046.3263L555.5489,1046.3263C555.4937,1047.3378,554.96454,1050.0322,554.028,1053.2672L554.0263,1053.2736L552.1783,1059.8873L363.56332,1060.2008L363.56375,1060.2008L176.1101,1060.4087L184.35304,1052.074L193.57759,1042.8495 Z M671.8405,1044.2218C672.06476,1045.225,672.2718,1048.2717,672.2718,1052.2057L672.2718,1060.4125L589.2054,1060.4108L591.0357,1054.1877C592.0224,1050.8688,592.97687,1048.048,593.33905,1047.1843L593.33,1047.1843C595.76605,1046.9354,612.3492,1046.2552,632.3215,1045.5735L632.3216,1045.5735L654.5124,1044.8112L666.0186,1044.4155L666.0185,1044.4155C668.96564,1044.315,670.997,1044.2471,671.83075,1044.2218 Z M35.38192,1134.9982L35.37829,1134.9982L35.3741,1134.9982L35.38192,1134.9982 Z M48.697334,412.43158C48.69346,412.43158,48.689514,412.43158,48.68564,412.43173L42.289764,412.53683L42.289764,412.53683L42.277718,412.53702C38.791832,412.64288,27.683868,413.27203,17.610052,414.0064L17.609846,414.0064L17.560759,414.0099L17.560583,414.0099L17.50997,414.0135L17.509901,414.0135C-0.8125038,415.26962,-1.042366,415.3052,-38.830666,425.6682L-38.830635,425.6682C-73.40887,435.0053,-77.47497,436.11237,-76.87246,438.97363L-76.86292,439.01324L-76.86358,439.01324C-76.30682,441.71246,-52.822716,589.19385,-24.45348,768.1704L-13.860283,835.0303L-5.6964073,886.55756C30.227592,1113.2808,33.343376,1132.7454,34.505913,1134.5289L34.50595,1134.529C34.719475,1134.8564,34.998283,1134.9779,35.268585,1134.996L35.26512,1134.996C35.48571,1135.2465,35.82704,1136.276,35.82704,1137.7643L35.82704,1140.8066C35.82704,1140.9943,35.901573,1141.1742,36.034264,1141.3068C36.166916,1141.4395,36.3469,1141.514,36.53453,1141.514L733.47833,1141.5123C733.86127,1141.5123,734.17474,1141.2076,734.1855,1140.8247L734.8145,1118.6008C735.2342,1106.43,735.5489,1082.0891,735.5489,1064.5781L735.5489,1032.8102C735.5489,1032.4194,735.232,1032.1027,734.8414,1032.1027L151.52946,1032.1006L151.52946,1027.9851L151.52946,1023.162C151.52946,1022.90344,151.38843,1022.6655,151.16162,1022.54126C151.05562,1022.48315,150.93878,1022.45447,150.82211,1022.45447C150.68918,1022.45447,150.5566,1022.49194,150.4406,1022.56616L147.81935,1024.2438L147.79997,1024.2567C147.05475,1024.769,146.54926,1025.0016,146.26276,1025.0842L146.26276,1025.0842C145.16988,1015.99414,105.78629,768.6557,104.75973,764.3702L104.76118,764.3702C104.76392,764.3702,104.7308,764.23364,104.644966,764.1019L104.64709,764.1019C104.45983,763.8214,104.13543,763.7648,104.117424,763.762L104.11753,763.762C103.83817,763.6983,103.3117,763.6815,102.6876,763.6815C99.83547,763.6815,92.96935,764.0625,85.134346,764.628L85.132545,764.628C77.6358,765.1085,73.099655,765.3669,70.16661,765.3669C66.706726,765.3669,65.62503,765.0038,64.60774,764.32544L64.59216,764.3153C62.058826,762.7203,60.88767,759.292,61.849834,756.2131L61.851154,756.2089C62.821285,753.0339,67.28758,751.6911,85.10935,750.8371L85.10796,750.8371C94.77346,750.46185,100.67266,749.8422,101.81953,749.0143L101.81974,749.0143C101.96644,748.9082,102.249626,748.65814,102.249626,748.2431C102.249626,748.20294,102.246056,748.166,102.24546,748.1599L102.24543,748.1592C102.104195,746.6266,90.30233,671.23065,75.81845,579.95123L75.81848,579.95123L49.396065,413.02847C49.341545,412.68423,49.044693,412.43158,48.697334,412.43158 Z"/>
</g>
<g style="fill:rgb(68,197,229); fill-opacity:0.99607843; stroke-linejoin: miter">
<path d="M-34.866875,456.3888L4.285885,444.38226L43.43863,432.3758Q87.621086,723.387,131.80354,1014.3981Q97.99767,1047.5985,64.1918,1080.7988L-34.866875,456.3888"/>
</g>
<g style="fill:rgb(103,118,120); fill-opacity:0.99607843; stroke-linejoin: miter">
<path d="M193.57811,1042.7772L193.52646,1042.7983L184.30188,1052.0228L184.3016,1052.0231L176.05865,1060.3577L176.1102,1060.481L363.5638,1060.275L363.56534,1060.2731L552.1785,1059.9596L552.2481,1059.9069L554.096,1053.2931L554.0959,1053.2932L554.0977,1053.287C555.0308,1050.0632,555.5617,1047.3693,555.62054,1046.3431L555.6119,1046.3431L555.5726,1046.3893L555.5633,1046.2543C550.6899,1045.8652,508.2817,1045.3674,457.30484,1044.8745L457.29715,1044.8745L457.29617,1044.8724L450.46768,1044.8195L448.91837,1044.8074L447.34534,1044.7953C393.4776,1044.3773,319.1738,1043.8005,276.12085,1043.4062L276.11505,1043.4062L276.11386,1043.4042L193.57811,1042.7772 Z"/>
</g>
<g style="fill:rgb(103,118,120); fill-opacity:0.99607843; stroke-linejoin: miter">
<path d="M671.83075,1044.1206L671.8277,1044.1207C670.94,1044.1476,669.017,1044.2119,666.017,1044.3163L666.0152,1044.3145L654.50885,1044.7101L632.32,1045.4741L632.31793,1045.4724C612.35004,1046.154,595.759,1046.8345,593.31976,1047.0856L593.32733,1047.2343L593.3184,1047.2343C593.31647,1047.239,593.3145,1047.2439,593.31256,1047.2485L593.31256,1047.2485L593.24506,1047.1472C592.8792,1048.0203,591.9251,1050.8408,590.93866,1054.1588L590.93854,1054.1593L589.10834,1060.3822L589.2054,1060.5118L672.2718,1060.5138L672.373,1060.4125L672.373,1052.2057C672.373,1048.2731,672.1662,1045.2151,671.9393,1044.1998L671.8405,1044.1206 Z"/>
</g>
<g style="fill:rgb(254,186,155); fill-opacity:1.0; stroke-linejoin: miter">
<path d="M310.15173,802.27563L338.64755,809.7995L342.34503,827.5807L334.56195,827.4685L330.9522,816.66925L325.37338,818.55963L344.31882,840.3447L334.6377,851.329L328.11227,845.75665Q330.02493,847.2052,325.37012,850.3184Q316.95242,855.984,309.37222,859.1106Q303.7535,861.53094,298.26367,862.4433Q295.55856,862.8576,293.12866,862.64923L290.79886,862.2551Q288.55695,861.6863,286.61383,860.52893Q285.5001,860.22986,281.29913,856.0292Q276.58585,850.33826,272.672,843.06L310.15173,802.27563 Z"/>
</g>
<g style="fill:rgb(34,43,50); fill-opacity:1.0; stroke-linejoin: miter">
<path d="M189.35164,931.81433L295.1704,890.00323L400.98914,848.1921Q392.41483,823.9613,383.84045,799.7304Q279.874,841.2711,175.90749,882.81177L189.35164,931.81433"/>
</g>
<g style="fill:rgb(255,255,255); fill-opacity:1.0; stroke-linejoin: miter">
<path d="M236.85217,875.4414L216.73454,910.39667L236.84756,875.4423 Z"/>
</g>
<g style="fill:rgb(0,0,0); fill-opacity:0.99607843; stroke-linejoin: miter">
<path d="M252.1726,1048.3723L252.17276,1048.3746L252.1724,1048.3733L252.1726,1048.3723 Z"/>
</g>
<g style="fill:rgb(255,255,255); fill-opacity:0.99607843; stroke-linejoin: miter">
<path d="M-18.447289,984.07446L-18.447151,984.0751Q-18.447151,984.0764,-18.447289,984.07446 Z"/>
</g>
<g style="fill:rgb(255,255,255); fill-opacity:1.0; stroke-linejoin: miter">
<path d="M186.68771,1156.4823L186.68779,1156.4829L186.68785,1156.4838L186.68771,1156.4823"/>
</g>
<g style="fill:rgb(255,255,255); fill-opacity:1.0; stroke-linejoin: miter">
<path d="M158.78299,687.206L164.35077,695.81464L169.91861,704.42316Q246.88684,755.33594,323.85504,806.24854Q297.9402,826.7925,272.02542,847.3366Q197.5706,804.56885,123.11579,761.8011L158.78299,687.206"/>
</g>
<g style="fill:rgb(255,255,255); fill-opacity:1.0; stroke-linejoin: miter">
<path d="M136.2327,755.4245L136.2327,755.4254L254.31369,852.9328Q234.16254,883.3718,214.01137,913.8108Q146.08379,862.6252,78.15622,811.43964L136.2327,755.4245"/>
</g>
<g style="fill:rgb(255,255,255); fill-opacity:1.0; stroke-linejoin: miter">
<path d="M167.09297,668.7232L149.60118,778.849L110.41002,862.9738L132.10715,1014.9175L62.1464,1083.6658L14.658287,761.47516Q10.706074,741.97974,8.049168,722.5593Q5.598318,698.3342,6.209154,693.5529Q6.2974396,683.9247,7.6810284,674.3715Q11.548447,645.69556,31.445248,617.9477Q54.327595,585.556,109.71518,535.77985L167.09297,668.7232"/>
</g>
<g style="fill:rgb(255,255,255); fill-opacity:1.0; stroke-linejoin: miter">
<path d="M195.2087,1014.58374L195.20872,1014.58386L195.20879,1014.584L195.2087,1014.58374"/>
</g>
<g style="fill:rgb(0,0,0); fill-opacity:0.99607843; stroke-linejoin: miter">
<path d="M114.35476,535.1238L114.3234,534.8139Q114.103096,500.56842,113.22898,495.10614Q112.67123,488.93787,111.56902,484.04913Q106.86649,466.5382,106.15382,460.34235Q104.522575,447.4109,104.74004,439.72186Q105.20821,423.01196,107.23867,416.1493Q108.302895,411.59842,109.9352,407.49924L111.73167,403.5708Q113.696465,399.80692,116.26516,396.7107Q121.45417,390.53174,128.41336,386.88593Q133.40814,383.5012,147.1842,381.39758Q156.59357,380.46802,167.49365,382.6466Q179.80215,385.08945,199.25914,392.54935Q206.23512,393.79526,209.58833,393.82806Q218.06697,395.62128,224.38373,382.68225Q230.30594,394.96976,230.44568,401.19962Q231.83359,411.12103,221.52306,434.12732L178.86674,493.41595L114.35476,535.1238 Z"/>
</g>
<g style="fill:rgb(255,186,155); fill-opacity:0.99607843; stroke-linejoin: miter">
<path d="M107.820656,548.69293L107.82188,548.6948L113.66448,524.09424L114.03448,514.58563C121.01411,514.89014,126.6283,513.7617,130.71147,510.95142C134.53761,508.31866,137.64153,504.1148,139.82751,498.4405C141.68884,493.6062,142.38695,489.98114,142.48814,487.708C142.55399,486.23505,142.72643,484.77448,142.66068,483.3191C142.24391,474.01434,142.11638,469.12592,142.42151,468.64856C142.4798,466.27966,143.07048,463.31006,145.21635,460.4095C150.14214,453.7484,155.11212,452.11365,159.39032,454.3385C160.51717,454.92566,161.86868,456.43726,163.59245,459.0998C164.1786,460.0053,166.02211,464.6203,169.09285,473.07782C169.8408,475.13794,170.75296,475.94354,171.25264,475.32593C172.20601,474.14746,172.64781,472.62592,172.99887,471.01923C175.5491,459.34235,177.41698,451.4275,178.6678,447.30768C180.96355,439.75012,182.7859,435.53503,183.33633,434.26825C186.51266,426.9626,191.65648,420.51184,200.27562,417.12622C212.94884,412.14926,222.52528,413.52075,228.28635,419.2602C232.37527,434.26062,234.14767,444.0882,234.18478,448.753C234.2254,453.9253,232.57166,458.8322,228.63959,463.48737C237.82294,479.95068,241.79578,489.94452,241.86368,493.52344C241.94821,497.94568,238.20273,499.8344,229.32294,499.27863C230.29065,505.81628,230.3017,509.8728,229.75714,511.59082C229.14954,513.5088,227.41809,514.8815,224.15073,515.5993C226.42691,516.1809,227.23767,517.888,226.40881,520.66583C225.67545,523.1257,223.60478,527.1059,220.36894,532.6608C220.4341,539.46545,219.96233,544.4218,218.54375,547.3448C217.17094,550.172,215.54832,551.6531,214.0749,551.99677C211.8184,553.37994,206.20897,553.80865,197.24681,553.28485L182.50145,546.9184L160.76552,577.7199L107.820656,548.69293 Z"/>
</g>
<g style="fill:rgb(0,0,0); fill-opacity:0.99607843; stroke-linejoin: miter">
<path d="M200.2723,365.68668L200.27339,365.68863L200.2723,365.68668L200.27339,365.68863 Z"/>
</g>
<g style="fill:rgb(255,255,255); fill-opacity:0.99607843; stroke-linejoin: miter">
<path d="M103.31461,535.7614L103.31461,535.76337L109.310616,524.28754L166.09827,572.96063L158.64638,588.06445C167.04265,610.4037,171.15106,628.3045,171.99557,641.7155C172.81737,654.7656,177.03024,692.6392,171.96541,723.20135L103.31461,535.7614L103.31461,535.76337 Z"/>
</g>
<g style="fill:rgb(255,255,255); fill-opacity:1.0; stroke-linejoin: miter">
<path d="M139.30602,675.77045C139.06175,675.8582,138.81921,675.9524,138.57845,676.0528C138.57838,676.05237,138.57831,676.05194,138.57823,676.0517L138.57375,676.0536C138.81474,675.95184,139.05736,675.858,139.30151,675.77045 Z"/>
</g>
<g style="fill:rgb(255,255,255); fill-opacity:1.0; stroke-linejoin: miter">
<path d="M134.13522,620.3922C134.20631,620.68054,134.27798,620.9691,134.3495,621.2581C134.34483,621.2585,134.34006,621.25934,134.33527,621.26L134.33527,621.26196C134.26839,620.9698,134.19992,620.68054,134.13078,620.3922 Z"/>
</g>
<g style="fill:rgb(255,255,255); fill-opacity:1.0; stroke-linejoin: miter">
<path d="M133.67151,618.54596L133.71523,618.6652L133.67126,618.5479L133.67151,618.54596 Z"/>
</g>
<g style="fill:rgb(0,0,0); fill-opacity:0.99607843; stroke-linejoin: miter">
<path d="M160.06097,582.5581L149.67992,592.224L155.04732,603.4755Q153.9704,620.84875,154.49101,628.45325Q154.82292,636.25055,157.6032,649.6815L170.66913,680.75226Q172.09825,659.3233,172.34102,648.7629Q172.73462,635.8425,171.68678,626.44403Q169.94466,612.764,164.08879,601.1703L160.06097,582.5581 Z"/>
</g>
<g style="fill:rgb(0,0,0); fill-opacity:0.99607843; stroke-linejoin: miter">
<path d="M201.43962,462.27673L202.07875,461.62292Q206.21068,457.23456,209.3521,455.76007Q210.05147,455.44037,210.76884,455.2229Q211.1186,455.0625,212.9547,454.75043Q214.79726,454.48242,218.21681,454.5677Q213.26521,456.22418,210.4373,457.55328Q207.67201,458.7948,201.43962,462.27673 Z"/>
</g>
<g style="fill:rgb(0,0,0); fill-opacity:0.99607843; stroke-linejoin: miter">
<path d="M209.17024,475.00385L209.17024,475.0053L209.16917,475.00867L209.17024,475.00385 Z"/>
</g>
<g style="fill:rgb(255,255,255); fill-opacity:0.99607843; stroke-linejoin: miter">
<path d="M206.8484,466.99384L206.84904,466.9948L214.6605,459.6413Q216.30528,460.95917,216.78087,462.02753Q217.31755,463.02087,217.69762,465.82587L206.8484,466.99384 Z"/>
</g>
<g style="fill:rgb(0,0,0); fill-opacity:0.99607843; stroke-linejoin: miter">
<path d="M214.58006,459.6004L213.41606,463.70435L217.42555,465.75812Q217.50685,464.1905,217.42473,463.4057Q217.32509,462.63196,217.26616,462.50458Q217.18883,462.22003,217.07076,461.9621Q216.9514,461.70752,216.79167,461.47766Q216.73225,461.3495,216.23799,460.8404Q215.72789,460.3435,214.58006,459.6004 Z"/>
</g>
<g style="fill:rgb(255,0,0); fill-opacity:0.99607843; stroke-linejoin: miter">
<path d="M248.90607,549.21844L248.90533,549.2208L248.90607,549.21844L248.90533,549.2208 Z"/>
</g>
<g style="fill:rgb(255,255,255); fill-opacity:0.99607843; stroke-linejoin: miter">
<path d="M199.2501,530.0414L199.2502,530.04236Q141.72354,421.60474,199.2501,530.0414 Z"/>
</g>
<g style="fill:rgb(0,0,0); fill-opacity:0.99607843; stroke-linejoin: miter">
<path d="M67.58748,555.60626L67.58748,555.60724Q67.58748,555.60956,67.58748,555.60626 Z"/>
</g>
<g style="fill:rgb(0,0,0); fill-opacity:1.0; stroke-linejoin: miter">
<path d="M102.38125,535.0857C103.942314,538.7864,105.92208,543.08966,108.1908,548.0054C112.9318,558.27985,118.72019,570.8196,123.70939,584.9109C125.9631,591.2759,128.05174,597.9516,130.01274,604.86L129.99861,604.8611C131.28235,609.3318,132.4983,613.90027,133.67151,618.54596L133.67126,618.5479L133.71631,618.6681C133.91951,619.5283,134.13515,620.3921,134.3495,621.2581C134.34064,621.25903,134.33153,621.26074,134.32243,621.26196L134.33646,621.265C138.62468,638.5352,142.33873,656.79675,146.01102,674.9903L146.01102,674.99225C146.01604,674.99097,146.02057,674.9915,146.02539,674.99164C146.16068,675.73096,146.31001,676.4707,146.45918,677.2107C146.86945,679.2415,145.55493,681.22015,143.524,681.6296C143.21832,681.69165,142.91382,681.71436,142.6158,681.7015C140.93295,681.6285,139.45262,680.42004,139.10416,678.6948C138.9267,677.8147,138.74925,676.9361,138.57181,676.05695C138.57613,676.055,138.58041,676.05304,138.5845,676.05194L138.57037,676.05304C132.7185,647.06714,126.852776,618.4765,118.88833,594.0459Q118.89452,594.0446,118.90113,594.0434L118.88712,594.0449C118.15502,591.79736,117.40568,589.5872,116.63671,587.4156C111.77694,573.69165,106.12768,561.4441,101.37757,551.1491C99.53095,547.14685,97.784645,543.37006,96.27766,539.8958Q98.43328,538.65564,100.61892,537.4778L102.366646,535.08514 Z"/>
</g>
<g style="fill:rgb(0,0,0); fill-opacity:1.0; stroke-linejoin: miter">
<path d="M147.58002,754.1516L147.5805,754.1531C141.6565,729.4223,136.10767,705.9608,138.1178,692.0855L138.11917,692.0891C139.19366,684.66003,142.27832,681.0781,145.21167,680.0132L145.21231,680.01514C147.59326,679.1484,151.0264,679.4902,155.26874,682.63635L155.2695,682.63855C165.26877,690.0525,176.39578,710.3114,188.202,732.0158C189.19217,733.8357,191.47012,734.50836,193.29022,733.5183C195.11014,732.528,195.78299,730.2501,194.79309,728.43005L194.79382,728.4319C183.44917,707.5762,171.42717,685.27814,159.73843,676.6099L159.73892,676.61127C154.19043,672.4948,148.13199,670.97034,142.65088,672.96045L142.65152,672.96234C136.02826,675.3651,131.96463,682.22723,130.69238,691.00964L130.69257,691.01013C128.42201,706.68195,134.53983,731.9236,140.28278,755.8987C140.76566,757.914,142.79059,759.156,144.80515,758.67316C146.8201,758.19086,148.0625,756.1662,147.58002,754.1516 Z"/>
</g>
<g style="fill:rgb(0,0,0); fill-opacity:0.99607843; stroke-linejoin: miter">
<path d="M130.60805,766.72766L131.13008,768.48303Q133.17801,773.6821,137.88011,776.00525Q142.60893,778.3192,147.87904,776.4731Q152.84685,774.441,154.99664,769.5981Q155.68295,768.0346,155.96481,766.3115L156.13385,764.56744Q156.19626,762.79285,155.78577,760.9736Q154.37555,755.4233,149.97623,752.5296Q145.5773,749.6359,140.19583,750.71735Q134.87802,752.08026,132.17278,756.5983Q129.4673,761.11566,130.60805,766.72766 Z"/>
</g>
<g style="fill:rgb(72,72,72); fill-opacity:0.99607843; stroke-linejoin: miter">
<path d="M136.88814,765.26215L137.12666,766.1723Q138.10039,768.87366,140.55898,770.1349Q143.03236,771.39136,145.89125,770.5176Q148.59264,769.5443,149.85432,767.08563Q151.11086,764.61237,150.2374,761.7535Q149.26407,759.0526,146.80515,757.7907Q144.33182,756.5341,141.47287,757.4078Q138.77107,758.3815,137.51012,760.83984Q137.10701,761.6339,136.91661,762.516L136.78569,763.4099Q136.71135,764.3212,136.88814,765.26215 Z"/>
</g>
<g style="fill:rgb(0,0,0); fill-opacity:0.99607843; stroke-linejoin: miter">
<path d="M181.67455,739.6558L182.19682,741.41144Q184.24474,746.6108,188.94688,748.9338Q193.67589,751.248,198.94539,749.4015Q203.91331,747.3696,206.06288,742.5268Q208.2043,737.6557,206.3304,732.1465Q204.28223,726.947,199.58006,724.6243Q194.85132,722.31024,189.58105,724.15594Q184.6134,726.18805,182.46376,731.0313Q181.77763,732.59485,181.49599,734.3182L181.3264,736.0618Q181.26418,737.83606,181.67455,739.6558 Z"/>
</g>
<g style="fill:rgb(255,255,255); fill-opacity:1.0; stroke-linejoin: miter">
<path d="M187.08437,736.9493Q187.09312,737.1596,187.1157,737.3713L187.11485,737.3735Q187.09062,737.16046,187.07985,736.9508 Z"/>
</g>
<g style="fill:rgb(72,72,72); fill-opacity:0.99607843; stroke-linejoin: miter">
<path d="M187.19603,737.9151L187.43376,738.82477Q188.40773,741.52686,190.86632,742.7881Q193.3394,744.0446,196.1985,743.1718Q198.8998,742.19745,200.16124,739.7392Q201.41817,737.2653,200.54424,734.4068Q199.57051,731.70465,197.11221,730.4439Q194.63916,729.1872,191.78,730.0606Q189.07822,731.034,187.81735,733.4929Q187.4144,734.28644,187.22394,735.1691L187.09293,736.0619Q187.01851,736.97375,187.19603,737.9151 Z"/>
</g>
<g style="fill:rgb(255,255,255); fill-opacity:1.0; stroke-linejoin: miter">
<path d="M491.85306,311.45975L491.85318,311.4606L491.85336,311.4615L491.85306,311.45975"/>
</g>
<g style="fill:rgb(255,255,255); fill-opacity:0.99607843; stroke-linejoin: miter">
<path d="M319.43448,847.1977L319.43454,847.198L319.4346,847.19836L319.43448,847.1977"/>
</g>
<g style="fill:rgb(60,70,79); fill-opacity:0.99607843; stroke-linejoin: miter">
<path d="M378.10544,810.0266L386.29755,806.6393L394.4897,803.252Q400.418,817.58496,406.3463,831.918Q398.15488,835.30725,389.96353,838.69635Q384.03445,824.3615,378.10544,810.0266"/>
</g>
<g style="fill:rgb(60,70,79); fill-opacity:0.99607843; stroke-linejoin: miter">
<path d="M35.376114,412.88983L35.37612,412.88992L35.37613,412.89008L35.37612,412.88992L35.376114,412.88983L35.37612,412.88992L35.37613,412.89008Q35.37612,412.88992,35.376114,412.88983"/>
</g>
<g style="fill:rgb(60,70,79); fill-opacity:0.99607843; stroke-linejoin: miter">
<path d="M57.965794,352.30795L57.965824,352.30826L57.96587,352.30853L57.965824,352.30826L57.965794,352.30795L57.965824,352.30826L57.96587,352.30853Q57.965824,352.30826,57.965794,352.30795"/>
</g>
<g style="fill:rgb(60,70,79); fill-opacity:0.99607843; stroke-linejoin: miter">
<path d="M57.965794,352.30795L57.965824,352.30826L57.96587,352.30853L57.965824,352.30826L57.965794,352.30795L57.965824,352.30826L57.96587,352.30853Q57.965824,352.30826,57.965794,352.30795"/>
</g>
<g style="fill:rgb(255,255,255); fill-opacity:0.99607843; stroke-linejoin: miter">
<path d="M208.85612,916.78394L382.07153,848.34314L368.03604,808.67926L197.85277,876.6777L208.85612,916.78394"/>
</g>
<g style="fill:rgb(60,70,79); fill-opacity:0.99607843; stroke-linejoin: miter">
<path d="M75.40663,297.97278L75.40663,297.97305L75.40668,297.97333L75.40663,297.97305L75.40663,297.97278L75.40663,297.97305L75.40668,297.97333Q75.40663,297.97305,75.40663,297.97278"/>
</g>
<g style="fill:rgb(60,70,79); fill-opacity:0.99607843; stroke-linejoin: miter">
<path d="M75.40663,297.97278L75.40663,297.97305L75.40668,297.97333L75.40663,297.97305L75.40663,297.97278L75.40663,297.97305L75.40668,297.97333Q75.40663,297.97305,75.40663,297.97278"/>
</g>
<g style="fill:rgb(60,70,79); fill-opacity:0.99607843; stroke-linejoin: miter">
<path d="M75.40663,297.97278L75.40663,297.97305L75.40668,297.97333L75.40663,297.97305L75.40663,297.97278L75.40663,297.97305L75.40668,297.97333Q75.40663,297.97305,75.40663,297.97278"/>
</g>
<g style="fill:rgb(60,70,79); fill-opacity:0.99607843; stroke-linejoin: miter">
<path d="M75.40663,297.97278L75.40663,297.97305L75.40668,297.97333L75.40663,297.97305L75.40663,297.97278L75.40663,297.97305L75.40668,297.97333Q75.40663,297.97305,75.40663,297.97278"/>
</g>
<g style="fill:rgb(60,70,79); fill-opacity:0.99607843; stroke-linejoin: miter">
<path d="M51.324318,394.1439L51.324356,394.14423L51.324387,394.1445L51.324356,394.14423L51.324318,394.1439L51.324356,394.14423L51.324387,394.1445Q51.324356,394.14423,51.324318,394.1439"/>
</g>
<g style="fill:rgb(254,186,155); fill-opacity:1.0; stroke-linejoin: miter">
<path d="M244.35995,862.3862L273.81198,863.48016L281.318,880.0168L273.69946,881.6139L267.80984,871.8692L262.78143,874.9372L286.0423,892.0378L279.00482,904.877L271.41718,900.8709Q273.6009,901.8654,269.74112,905.92303Q262.7706,913.2968,256.0607,918.0093Q251.10928,921.6025,245.9531,923.6966Q243.40479,924.6937,240.98837,925.0241L238.62894,925.15027Q236.3169,925.0874,234.1669,924.3833Q233.0149,924.33594,227.99545,921.15857Q222.14848,916.639,216.73454,910.39667L244.35995,862.3862 Z"/>
</g>
<g style="fill:rgb(34,43,50); fill-opacity:0.99607843; stroke-linejoin: miter">
<path d="M101.89501,573.83484L101.89501,573.83496L101.89504,573.8351L101.89501,573.83496L101.89501,573.83484L101.89501,573.83496L101.89504,573.8351Q101.89501,573.83496,101.89501,573.83484"/>
</g>
<g style="fill:rgb(34,43,50); fill-opacity:0.99607843; stroke-linejoin: miter">
<path d="M101.89501,573.83484L101.89501,573.83496L101.89504,573.8351L101.89501,573.83496L101.89501,573.83484L101.89501,573.83496L101.89504,573.8351Q101.89501,573.83496,101.89501,573.83484"/>
</g>
<g style="fill:rgb(34,43,50); fill-opacity:0.99607843; stroke-linejoin: miter">
<path d="M190.54727,720.66907L190.54724,720.66925L190.54724,720.6694L190.54724,720.66925L190.54727,720.66907L190.54724,720.66925L190.54724,720.6694Q190.54724,720.66925,190.54727,720.66907"/>
</g>
<g style="fill:rgb(34,43,50); fill-opacity:0.99607843; stroke-linejoin: miter">
<path d="M111.54235,319.6129L111.542305,319.61322L111.542244,319.6135L111.542305,319.61322L111.54235,319.6129L111.542305,319.61322L111.542244,319.6135Q111.542305,319.61322,111.54235,319.6129"/>
</g>
<g style="fill:rgb(34,43,50); fill-opacity:0.99607843; stroke-linejoin: miter">
<path d="M111.54235,319.6129L111.542305,319.61322L111.542244,319.6135L111.542305,319.61322L111.54235,319.6129L111.542305,319.61322L111.542244,319.6135Q111.542305,319.61322,111.54235,319.6129"/>
</g>
<g style="fill:rgb(34,43,50); fill-opacity:0.2; stroke-linejoin: miter">
<path d="M47.06698,732.74304L74.335915,814.08405L119.89624,843.1858L111.03857,862.49805L132.29782,1014.9094L78.49976,1068.3025L47.06698,732.74304"/>
</g>
</g>
</svg>